<svg width="18" height="18" fill="none" xmlns="http://www.w3.org/2000/svg"><path d="M8.523 0C6.208 0 5.918.01 5.009.051 4.102.093 3.482.237 2.94.447a4.172 4.172 0 00-1.51.983c-.473.474-.764.95-.983 1.51C.236 3.48.092 4.1.051 5.007.011 5.917 0 6.208 0 8.522s.01 2.604.051 3.513c.042.907.186 1.526.396 2.068.218.56.51 1.036.983 1.51.474.474.95.765 1.51.983.542.21 1.16.354 2.068.396.909.041 1.2.052 3.513.052 2.315 0 2.605-.01 3.514-.052.907-.042 1.527-.185 2.069-.396a4.17 4.17 0 001.509-.983c.474-.474.765-.95.983-1.51.21-.542.353-1.161.396-2.068.04-.91.052-1.199.052-3.513 0-2.315-.011-2.605-.052-3.514-.043-.907-.186-1.526-.396-2.068a4.182 4.182 0 00-.983-1.51 4.164 4.164 0 00-1.51-.983c-.543-.21-1.162-.354-2.07-.396C11.124.011 10.835 0 8.52 0h.003zm-.765 1.536h.765c2.275 0 2.545.008 3.443.049.83.038 1.282.177 1.582.293.398.155.681.34.98.638.298.298.482.582.637.98.117.3.256.75.294 1.581.04.899.05 1.169.05 3.443s-.01 2.544-.05 3.442c-.038.831-.177 1.282-.294 1.582-.154.398-.34.68-.637.979a2.636 2.636 0 01-.98.637c-.3.117-.751.256-1.582.294-.898.04-1.168.05-3.443.05-2.276 0-2.546-.01-3.444-.05-.83-.038-1.282-.177-1.582-.294a2.641 2.641 0 01-.98-.637 2.642 2.642 0 01-.638-.98c-.117-.3-.256-.75-.294-1.582-.04-.898-.049-1.168-.049-3.443 0-2.276.009-2.544.05-3.443.037-.83.176-1.282.293-1.582a2.64 2.64 0 01.638-.98c.298-.298.582-.483.98-.638.3-.117.751-.255 1.582-.293.786-.036 1.09-.047 2.679-.048v.002zm5.313 1.415a1.022 1.022 0 100 2.045 1.022 1.022 0 000-2.046zM8.523 4.145a4.376 4.376 0 100 8.753 4.376 4.376 0 000-8.753zm0 1.536a2.84 2.84 0 110 5.681 2.84 2.84 0 010-5.68z" fill="#253E70"/></svg>