<svg width="15" height="18" fill="none" xmlns="http://www.w3.org/2000/svg"><g clip-path="url(#clip0_149_532)"><path d="M2.417.426A1.8 1.8 0 013.54.662a1.753 1.753 0 01-.009 3.04 1.802 1.802 0 01-2.256-.368 1.752 1.752 0 01-.042-2.257c.288-.36.724-.6 1.185-.65zM.91 4.707h3.432c-.001.141.004.283-.009.424a6.654 6.654 0 00-2.202 1.55 5.113 5.113 0 00-1.115 1.864l-.106.013V4.707z" fill="#FF8A00"/><path d="M6.725 4.862c.38-.045.764-.067 1.147-.04 1.35.085 2.683.55 3.762 1.363.081.064.167.12.248.184.473.362.877.811 1.178 1.323.085.15.18.295.26.448a6.04 6.04 0 01.683 2.091c.025.174.03.348.043.523.127 2.143.017 4.29.044 6.436h-3.222v-2.615c.002-.926-.003-1.853.003-2.779-.015-.782-.274-1.548-.688-2.21-.48-.747-1.28-1.305-2.174-1.432-.695-.092-1.437-.004-2.045.36a3.26 3.26 0 00-1.163 1.12 4.475 4.475 0 00-.656 1.99v5.566H.923c.007-.395.002-.79.003-1.186-.01-1.25-.03-2.499-.014-3.748.01-.56.028-1.12.062-1.679a6.11 6.11 0 01.969-2.863c.346-.628.88-1.133 1.46-1.55.341-.246.7-.47 1.08-.652a7.131 7.131 0 012.242-.65z" fill="#fff"/></g><defs><clipPath id="clip0_149_532"><path fill="#fff" d="M0 0h15v18H0z"/></clipPath></defs></svg>