<svg width="209" height="40" fill="none" xmlns="http://www.w3.org/2000/svg"><g clip-path="url(#clip0_172_1662)" fill-rule="evenodd" clip-rule="evenodd"><path d="M9.036 31l8.398-16.858 1.301 2.566L11.71 31l-2.674.002zm8.648-17.36l2.68-5.377L32.017 31h-5.892l-1.473-2.93-.002.005-5.658-11.891-1.308-2.544zM25.592 31H14.205l1.332-2.398h8.851l1.204 2.399z" fill="#fff"/><path d="M17.753 1.456c-1.154-1.111-3.836.02-4.397 1.171-.016.034-.723.933-.723.196 0-1.852-2.84 1.462-3.642 1.8-1.154.486.226.407-1.208 1.627-.894.761-.347.443-2.266 1.513-.551.308-2.317 2.646-2.278 3.65.032.806-.724 3.567-1.565 4.225-.942.737-.312 2.842-1.387 4.61-.4.657-.392 1.646.088 2.198 1.633 1.876.444 1.31 1.18 2.77.093.185.321-.173.859.363.398.397 1.959 2.694 1.934 3.466-.03.936 1.429 3.49 2.045 4.22.693.819-1.047 1.918 1.53 3.193.487.242 1.785-.658 2.041.592.3 1.465.26 3.12 1.867 2.087 1.731-1.112 2.971-.388 5.4.145 1.363.3 2.425-.048 4.209.686.19.078 1.074.015 1.146-.2 1.257-.384 2-.671 3.403-.63 1.629.05 2.39-2.02 4.257-1.252 1.698.698 1.426-2.38 3.897-2.884.378-.077 3.251-1.67 3.45-2.841.64-3.78 3.605-4.797 2.634-8.452-.451-1.7.711-3.085-.57-2.451-.408.202-.257 2.777-1.174 4.1-.406.586-2.79 2.611-3.295 3.173-1.975 2.19-4.862 5.79-7.768 6.381-2.444.497-1.73.811-5.387 1.097-2.482.194-1.516 1.172-3.724-.211-.638-.4-1.949 1.453-6.507-2.604-1.649-1.468-4.009-2.149-5.252-3.793-.858-1.135.585-1.754-1.58-2.449-.126-.04-.604-1.188-.84-1.849-.728-2.049-.563-6.136-.24-8.914.358-3.061 4.023-7.904 5.198-7.568.736.21 1.045-.534 1.855-1.025 1.47-.891 2.919-2.162 4.453-2.294.652-.056.18-.72 2.263-.74 1.044-.01 1.24.047 3.668.913 1.463.523-.066 1.201 1.742 1.424.743.092-1.588 1.252.986 1.58.499.064-.648.648.587.782 1.211.13-.45 2.717-.192 2.952.702.637 1.83-3.277 2.61-3.941 1.226-1.043 1.416-.478.968.594-.457 1.094-1.565 2.708-1.565 2.873 0 .888 1.574-.63 1.892-1.828.002-.01 1.51-2.018 1.657-.235.114 1.395 1.424.897 1.213 2.584-.06.477 1.487-.863 2.417.912.38.727 3.623 4.436 3.213.783-.04-.35 1.565-1.407 1.446 1.594-.039.988 1.013 2.246 1.013-1.33 0-2.66-1.559.81-1.41-2.954.028-.715-.302-2.494-1.069-3.088-1.793-1.391-2.269-3.696-4.441-4.917-.825-.464 1.286-1.936.84-2.08-.308-.1-1.016.965-1.503 1.269-.488.303-2.612-2.625-4.058-2.418-1.495.214-1.512.348-3.37.103-.87-.425-4.734.155-3.539 1.86.173.246 2.413 1.167-.113 1.285-.87.04-.835-.48-2.913.048-.36.092-2.67-.118-.8-.764.007-.003 1.256-.684.816-1.107z" fill="#FF0108"/><path d="M39.906 19.936c-.17.055-.36.154-.616-.277-.255-.429 1.099-.758.833.007 0 .002-.02.206-.217.27zm.109-1.31c-.214.012-.48-.18-.483-.18-.135-.658-.09-1.024.114-1.038.02.008.582 1.205.37 1.218z" fill="#FF0108"/></g><path d="M55.682 12.465V27.38h-3.577V12.465h3.577zm4.674 6.208v2.766H54.71v-2.766h5.647zm.429-6.208v2.776h-6.076v-2.776h6.076zm6.818 9.855H64.56v-2.776h3.043c.356 0 .642-.086.858-.257a1.41 1.41 0 00.48-.706c.105-.308.158-.653.158-1.035 0-.41-.053-.789-.157-1.137a1.797 1.797 0 00-.481-.84c-.216-.219-.502-.328-.858-.328h-1.736v12.14h-3.576V12.464h5.312c1.053 0 1.96.218 2.72.655a4.486 4.486 0 011.766 1.804c.419.758.628 1.625.628 2.601 0 .963-.21 1.803-.628 2.52a4.28 4.28 0 01-1.767 1.68c-.76.397-1.666.595-2.719.595zm22.902-9.855V27.38h-3.566l-3.817-9.28v9.28h-3.577V12.465h3.577l3.817 9.281v-9.281h3.566zm11.064 12.149v2.766h-6.662v-2.766h6.662zm-5.417-12.15V27.38h-3.577V12.465h3.577zm4.549 5.922v2.674h-5.794v-2.674h5.794zm.899-5.921v2.776h-6.693v-2.776h6.693zm8.282 0V27.38h-3.587V12.465h3.587zm3.691 0v2.776h-10.865v-2.776h10.865zm4.644 13.563l2.447-13.563h1.715l1.108 1.158-2.625 13.757h-1.913l-.732-1.352zm-.084-13.563l2.06 13.665-.816 1.25h-2.217l-2.572-14.915h3.545zm6.086 13.594l2.05-13.594h3.524L127.22 27.38h-2.206l-.795-1.321zm-.533-13.594l2.53 13.645-.784 1.27h-1.914l-2.698-13.778 1.161-1.137h1.705zm18.603 6.341v2.254c0 1.072-.136 2.014-.408 2.827-.271.813-.658 1.496-1.16 2.049a4.896 4.896 0 01-1.789 1.24c-.683.273-1.443.41-2.279.41-.844 0-1.611-.137-2.301-.41a4.9 4.9 0 01-1.788-1.24c-.502-.553-.889-1.236-1.161-2.049s-.408-1.755-.408-2.827v-2.254c0-1.072.136-2.018.408-2.838.272-.82.656-1.502 1.151-2.049a4.893 4.893 0 011.788-1.239c.69-.28 1.457-.42 2.3-.42.837 0 1.6.14 2.29.42.698.28 1.294.693 1.789 1.24.495.546.878 1.229 1.15 2.048.279.82.418 1.766.418 2.838zm-3.628 2.254v-2.274c0-.67-.042-1.24-.126-1.711-.084-.471-.209-.854-.376-1.148a1.628 1.628 0 00-.628-.645 1.832 1.832 0 00-.889-.205c-.355 0-.659.068-.909.205a1.621 1.621 0 00-.628.645c-.16.294-.279.677-.355 1.148a10.816 10.816 0 00-.115 1.71v2.275c0 .662.038 1.229.115 1.7.076.465.195.847.355 1.147.167.301.38.523.638.666.258.137.561.205.91.205.334 0 .627-.068.878-.205.258-.143.467-.365.628-.666.167-.3.292-.682.376-1.147a9.855 9.855 0 00.126-1.7zm5.5-8.595h5.208c1.018 0 1.9.17 2.646.512.745.342 1.317.847 1.715 1.516.404.67.606 1.496.606 2.48 0 .853-.111 1.567-.335 2.14-.216.574-.522 1.049-.92 1.424a5.063 5.063 0 01-1.401.912l-1.161.666h-4.089l-.021-2.776h2.876c.328 0 .6-.082.816-.246.216-.164.376-.396.481-.697a3.23 3.23 0 00.167-1.096c0-.43-.052-.799-.157-1.106-.104-.308-.258-.543-.46-.707-.195-.164-.449-.246-.763-.246h-1.631v12.14h-3.577V12.464zm6.745 14.915l-2.698-6.597 3.786-.02 2.75 6.464v.153h-3.838zm8.972-14.915V27.38h-3.576V12.465h3.576zm7.551 0l-4.811 7.56-2.959 3.698-.68-3.299 1.778-3.278 2.269-4.681h4.403zM163.12 27.38l-2.781-6.72 2.792-2.059 4.214 8.78h-4.225zm21.124-8.574v2.254c0 1.072-.136 2.014-.408 2.827-.272.813-.659 1.496-1.161 2.049a4.9 4.9 0 01-1.788 1.24c-.683.273-1.443.41-2.28.41-.843 0-1.61-.137-2.3-.41a4.9 4.9 0 01-1.788-1.24c-.502-.553-.889-1.236-1.161-2.049s-.408-1.755-.408-2.827v-2.254c0-1.072.136-2.018.408-2.838.272-.82.655-1.502 1.15-2.049a4.901 4.901 0 011.788-1.239c.691-.28 1.457-.42 2.301-.42.837 0 1.6.14 2.29.42a4.78 4.78 0 011.788 1.24c.495.546.879 1.229 1.151 2.048.279.82.418 1.766.418 2.838zm-3.629 2.254v-2.274c0-.67-.042-1.24-.125-1.711-.084-.471-.209-.854-.377-1.148a1.619 1.619 0 00-.627-.645 1.832 1.832 0 00-.889-.205c-.356 0-.659.068-.91.205-.251.137-.46.352-.627.645-.161.294-.279.677-.356 1.148a10.936 10.936 0 00-.115 1.71v2.275c0 .662.039 1.229.115 1.7.077.465.195.847.356 1.147.167.301.38.523.638.666.258.137.561.205.909.205.335 0 .628-.068.879-.205.258-.143.467-.365.627-.666.168-.3.293-.682.377-1.147a9.966 9.966 0 00.125-1.7zm10.803 1.26h-3.043v-2.776h3.043c.355 0 .641-.086.857-.257.223-.17.384-.406.481-.706.105-.308.157-.653.157-1.035 0-.41-.052-.789-.157-1.137a1.792 1.792 0 00-.481-.84c-.216-.219-.502-.328-.857-.328h-1.736v12.14h-3.577V12.464h5.313c1.052 0 1.959.218 2.719.655a4.489 4.489 0 011.767 1.804c.418.758.627 1.625.627 2.601 0 .963-.209 1.803-.627 2.52a4.283 4.283 0 01-1.767 1.68c-.76.397-1.667.595-2.719.595zm13.395 1.096c0-.232-.024-.44-.073-.625a1.28 1.28 0 00-.261-.533 2.218 2.218 0 00-.575-.491 6.6 6.6 0 00-1.036-.533 17.835 17.835 0 01-1.6-.738 7.434 7.434 0 01-1.411-.973 4.493 4.493 0 01-.994-1.311c-.251-.506-.376-1.093-.376-1.762 0-.642.125-1.22.376-1.731.258-.52.61-.96 1.056-1.322a4.75 4.75 0 011.6-.84 6.506 6.506 0 012.008-.297c.962 0 1.809.191 2.541.574a4.138 4.138 0 011.726 1.608c.418.69.627 1.506.627 2.448h-3.566c0-.375-.048-.707-.146-.993a1.414 1.414 0 00-.46-.677c-.202-.163-.471-.245-.805-.245-.3 0-.555.068-.764.205-.202.136-.355.32-.46.553a1.75 1.75 0 00-.157.748c0 .225.052.43.157.614.105.178.248.345.429.502.188.157.404.307.648.45.251.144.52.284.805.42.691.254 1.301.537 1.83.851.537.307.987.66 1.349 1.055.363.39.635.833.816 1.332.188.499.282 1.062.282 1.69 0 .67-.111 1.264-.334 1.783-.216.519-.534.96-.952 1.321a4.271 4.271 0 01-1.516.81c-.586.184-1.248.276-1.987.276a7.093 7.093 0 01-1.997-.287 5.595 5.595 0 01-1.768-.901 4.476 4.476 0 01-1.255-1.568c-.313-.642-.47-1.403-.47-2.284h3.597c0 .437.035.806.105 1.106.069.3.178.543.324.728.153.177.349.307.586.389.237.075.529.113.878.113.321 0 .568-.065.742-.195a1.05 1.05 0 00.377-.533c.07-.225.104-.47.104-.737z" fill="#fff"/><defs><clipPath id="clip0_172_1662"><path fill="#fff" d="M0 0h40.421v40H0z"/></clipPath></defs></svg>