<svg width="814" height="83" fill="none" xmlns="http://www.w3.org/2000/svg"><path d="M.56 56.306L6.814 27.26C10.387 10.725 23.788.894 40.316.894h78.174l-2.234 12.512h-74.6c-12.954 0-19.208 7.597-20.994 16.535l-4.914 23.237c-2.234 10.725 3.573 16.535 13.4 16.535h75.494l-2.68 12.512H23.788c-16.08 0-26.355-9.831-23.228-25.919zm121.95 0L134.124.894h14.295l-11.168 52.284c-2.233 10.725 3.574 16.535 13.401 16.535h58.072c11.614 0 18.314-5.81 20.548-16.535L240.44.894h14.294L243.12 56.306c-3.574 16.088-17.422 25.919-33.503 25.919h-64.325c-16.082 0-25.909-9.831-22.782-25.919zm138.032 13.407h92.914c7.147 0 11.614-3.129 12.508-8.044l.446-2.681c.894-3.575-2.233-7.15-6.7-7.597l-75.493-6.703c-11.614-.894-18.762-7.597-16.528-18.77l1.34-6.255C271.709 7.597 282.43 0 295.384 0h92.468l-2.68 12.512h-90.681c-6.701 0-10.721 4.47-11.614 8.044l-.447 3.128c-.893 4.47 1.787 8.044 7.147 8.491l77.28 6.703c10.721.894 16.528 7.597 14.294 18.322l-1.34 6.256c-2.233 11.172-13.847 18.769-26.355 18.769h-95.595l2.681-12.512zm188.955-56.307h-52.265L399.913.894h118.823l-2.681 12.512h-51.817l-14.741 68.819h-14.295l14.295-68.819zm67.005 42.9l6.254-29.047C526.33 10.725 539.731.894 556.259.894h63.878c16.082 0 25.909 9.831 22.335 26.365l-6.253 29.047c-3.574 16.088-17.422 25.919-33.95 25.919h-63.432c-15.634 0-25.909-9.831-22.335-25.919zm86.214 13.407c11.614 0 17.868-5.81 20.101-16.535l4.914-23.237c2.234-10.278-1.787-16.535-14.294-16.535h-56.285c-12.954 0-19.208 7.597-20.995 16.535l-4.914 23.237c-2.233 10.725 3.574 16.535 13.401 16.535h58.072zM813.114.894l-17.422 81.331h-13.848l13.401-63.456L732.26 65.69h-11.167l-44.224-48.263-13.401 64.797H649.62L666.595.894h13.848l48.244 52.731L799.266.894h13.848z" fill="#445F6D" fill-opacity=".08"/></svg>