<svg width="814" height="83" viewBox="0 0 814 83" fill="none" xmlns="http://www.w3.org/2000/svg">
<path d="M0.559911 56.3062L6.81376 27.2594C10.3874 10.725 23.7885 0.893738 40.3165 0.893738H118.49L116.256 13.4062H41.6566C28.7022 13.4062 22.4484 21.0031 20.6616 29.9406L15.7478 53.1781C13.5143 63.9031 19.3214 69.7125 29.1489 69.7125H104.642L101.962 82.225H23.7885C7.70716 82.225 -2.56701 72.3937 0.559911 56.3062Z" fill="#445F6D" fill-opacity="0.08"/>
<path d="M122.51 56.3062L134.124 0.893738H148.419L137.251 53.1781C135.018 63.9031 140.825 69.7125 150.652 69.7125H208.724C220.338 69.7125 227.038 63.9031 229.272 53.1781L240.44 0.893738H254.734L243.12 56.3062C239.546 72.3937 225.698 82.225 209.617 82.225H145.292C129.21 82.225 119.383 72.3937 122.51 56.3062Z" fill="#445F6D" fill-opacity="0.08"/>
<path d="M260.542 69.7125H353.456C360.603 69.7125 365.07 66.5844 365.964 61.6688L366.41 58.9875C367.304 55.4125 364.177 51.8375 359.71 51.3906L284.217 44.6875C272.603 43.7938 265.455 37.0906 267.689 25.9188L269.029 19.6625C271.709 7.59688 282.43 0 295.384 0H387.852L385.172 12.5125H294.491C287.79 12.5125 283.77 16.9813 282.877 20.5563L282.43 23.6844C281.537 28.1531 284.217 31.7281 289.577 32.175L366.857 38.8781C377.578 39.7719 383.385 46.475 381.151 57.2L379.811 63.4563C377.578 74.6281 365.964 82.225 353.456 82.225H257.861L260.542 69.7125Z" fill="#445F6D" fill-opacity="0.08"/>
<path d="M449.497 13.4062H397.232L399.913 0.893738H518.736L516.055 13.4062H464.238L449.497 82.225H435.202L449.497 13.4062Z" fill="#445F6D" fill-opacity="0.08"/>
<path d="M516.502 56.3062L522.756 27.2594C526.33 10.725 539.731 0.893738 556.259 0.893738H620.137C636.219 0.893738 646.046 10.725 642.472 27.2594L636.219 56.3062C632.645 72.3937 618.797 82.225 602.269 82.225H538.837C523.203 82.225 512.928 72.3937 516.502 56.3062ZM602.716 69.7125C614.33 69.7125 620.584 63.9031 622.817 53.1781L627.731 29.9406C629.965 19.6625 625.944 13.4062 613.437 13.4062H557.152C544.198 13.4062 537.944 21.0031 536.157 29.9406L531.243 53.1781C529.01 63.9031 534.817 69.7125 544.644 69.7125H602.716Z" fill="#445F6D" fill-opacity="0.08"/>
<path d="M813.114 0.893799L795.692 82.2251H781.844L795.245 18.7688L732.26 65.6907H721.093L676.869 17.4282L663.468 82.2251H649.62L666.595 0.893799H680.443L728.687 53.6251L799.266 0.893799H813.114Z" fill="#445F6D" fill-opacity="0.08"/>
</svg>
