<svg width="18" height="18" viewBox="0 0 18 18" fill="none" xmlns="http://www.w3.org/2000/svg">
<path d="M8.52251 0C6.20817 0 5.91767 0.0101408 5.00874 0.0514708C4.10151 0.0930565 3.48224 0.236646 2.94043 0.447387C2.37987 0.66503 1.90444 0.956215 1.4308 1.43002C0.956736 1.90374 0.665548 2.37916 0.447221 2.93946C0.235882 3.48144 0.0921199 4.10096 0.0513008 5.00775C0.0106521 5.91676 0 6.20734 0 8.52174C0 10.8361 0.0102261 11.1257 0.0514713 12.0346C0.0932278 12.9418 0.236819 13.5611 0.447391 14.1029C0.665207 14.6635 0.956395 15.1389 1.4302 15.6125C1.90376 16.0866 2.37918 16.3784 2.93932 16.5961C3.48156 16.8068 4.10092 16.9504 5.00797 16.992C5.91699 17.0333 6.20724 17.0435 8.52148 17.0435C10.8361 17.0435 11.1256 17.0333 12.0346 16.992C12.9418 16.9504 13.5618 16.8068 14.104 16.5961C14.6643 16.3784 15.139 16.0866 15.6125 15.6125C16.0866 15.1389 16.3777 14.6635 16.5961 14.1032C16.8056 13.5611 16.9494 12.9417 16.992 12.0348C17.0328 11.1259 17.0435 10.8361 17.0435 8.52174C17.0435 6.20734 17.0328 5.91693 16.992 5.00792C16.9494 4.10071 16.8056 3.48152 16.5961 2.93972C16.3777 2.37916 16.0866 1.90374 15.6125 1.43002C15.1385 0.956044 14.6645 0.664859 14.1035 0.447472C13.5602 0.236646 12.9406 0.0929713 12.0334 0.0514708C11.1244 0.0101408 10.835 0 8.51987 0H8.52251ZM7.75802 1.53569C7.98496 1.53535 8.23814 1.53569 8.52251 1.53569C10.7979 1.53569 11.0675 1.54387 11.9661 1.58469C12.7969 1.62269 13.2479 1.76151 13.5483 1.87817C13.946 2.03259 14.2295 2.21725 14.5276 2.51559C14.8259 2.81385 15.0104 3.09788 15.1653 3.49558C15.282 3.79554 15.4209 4.24651 15.4588 5.07737C15.4996 5.97573 15.5085 6.24552 15.5085 8.51978C15.5085 10.794 15.4996 11.0639 15.4588 11.9622C15.4208 12.793 15.282 13.244 15.1653 13.5441C15.0109 13.9418 14.8259 14.2249 14.5276 14.523C14.2293 14.8213 13.9462 15.0059 13.5483 15.1604C13.2482 15.2775 12.7969 15.416 11.9661 15.454C11.0677 15.4948 10.7979 15.5037 8.52251 15.5037C6.24703 15.5037 5.97732 15.4948 5.07904 15.454C4.24817 15.4157 3.7972 15.2769 3.49656 15.1602C3.09893 15.0057 2.81482 14.8211 2.51655 14.5229C2.21829 14.2246 2.03371 13.9413 1.87887 13.5434C1.76221 13.2433 1.62322 12.7924 1.58538 11.9615C1.54457 11.0632 1.53638 10.7934 1.53638 8.51765C1.53638 6.24194 1.54457 5.97359 1.58538 5.07524C1.62339 4.24438 1.76221 3.79341 1.87887 3.49303C2.03337 3.09532 2.21829 2.81129 2.51664 2.51304C2.81499 2.21478 3.09893 2.03011 3.49664 1.87536C3.79703 1.75819 4.24817 1.61971 5.07904 1.58153C5.86517 1.546 6.16983 1.53535 7.75802 1.53356V1.53569ZM13.0714 2.95062C12.5068 2.95062 12.0488 3.40824 12.0488 3.97288C12.0488 4.53744 12.5068 4.99548 13.0714 4.99548C13.636 4.99548 14.094 4.53744 14.094 3.97288C14.094 3.40832 13.636 2.95028 13.0714 2.95028V2.95062ZM8.52251 4.14544C6.10574 4.14544 4.14625 6.10491 4.14625 8.52174C4.14625 10.9386 6.10574 12.8971 8.52251 12.8971C10.9394 12.8971 12.8982 10.9386 12.8982 8.52174C12.8982 6.105 10.9392 4.14544 8.52234 4.14544H8.52251ZM8.52251 5.68113C10.0913 5.68113 11.3631 6.95282 11.3631 8.52174C11.3631 10.0905 10.0913 11.3623 8.52251 11.3623C6.95374 11.3623 5.68196 10.0905 5.68196 8.52174C5.68196 6.95282 6.95365 5.68113 8.52251 5.68113Z" fill="#253E70"/>
</svg>
