<svg width="209" height="40" viewBox="0 0 209 40" fill="none" xmlns="http://www.w3.org/2000/svg">
<g clip-path="url(#clip0_172_1662)">
<path fill-rule="evenodd" clip-rule="evenodd" d="M9.03613 31.0006L17.4344 14.1424L18.735 16.7082L11.7102 30.9992L9.03613 31.0006ZM17.6844 13.6406L20.3635 8.2627L32.0171 31.0003H26.1251L24.6523 28.0709L24.6501 28.0753L18.9924 16.1836L17.6841 13.6403L17.6844 13.6406ZM25.592 31.0006H14.2048L15.5368 28.6022H24.3882L25.5923 31.0006H25.592Z" fill="white"/>
<path fill-rule="evenodd" clip-rule="evenodd" d="M17.7535 1.45592C16.5987 0.344981 13.9171 1.47678 13.3559 2.62747C13.3397 2.66084 12.6328 3.55993 12.6328 2.82264C12.6328 0.970512 9.79321 4.28499 8.99094 4.62278C7.83672 5.10875 9.21721 5.02951 7.78322 6.24999C6.88871 7.0112 7.436 6.69315 5.51686 7.7635C4.96567 8.07098 3.19951 10.4091 3.23936 11.4135C3.27112 12.2187 2.51511 14.9805 1.67383 15.6382C0.731957 16.375 1.36229 18.4801 0.287213 20.248C-0.112667 20.9055 -0.105422 21.8944 0.374713 22.446C2.00795 24.322 0.8189 23.7562 1.55457 25.2167C1.64764 25.4015 1.87614 25.0429 2.41368 25.5792C2.81189 25.9762 4.37295 28.2734 4.34843 29.0452C4.31834 29.981 5.77657 32.5354 6.39297 33.2643C7.086 34.0836 5.34576 35.1829 7.92283 36.4584C8.41021 36.6995 9.70849 35.8004 9.96402 37.0503C10.2633 38.5146 10.224 40.1696 11.8311 39.1374C13.5624 38.025 14.8022 38.7495 17.2318 39.2825C18.5942 39.5813 19.6556 39.2338 21.4396 39.9681C21.6291 40.0459 22.5138 39.9828 22.586 39.7673C23.8425 39.3837 24.586 39.0968 25.9893 39.1387C27.6178 39.1874 28.3788 37.1173 30.2464 37.8855C31.944 38.5838 31.6715 35.5054 34.1427 35.0025C34.5211 34.9254 37.3944 33.3313 37.5928 32.1609C38.2334 28.3818 41.1984 27.3638 40.2273 23.709C39.7755 22.0089 40.9384 20.6241 39.6571 21.258C39.2492 21.4599 39.4002 24.0354 38.4828 25.3582C38.0765 25.9442 35.6931 27.9695 35.1877 28.5306C33.2131 30.7213 30.3261 34.3216 27.4197 34.9121C24.9764 35.4086 25.6903 35.7233 22.0329 36.0094C19.5511 36.2035 20.5167 37.181 18.3091 35.7976C17.6707 35.3975 16.3601 37.2508 11.8024 33.1943C10.1532 31.7263 7.79297 31.0455 6.54986 29.4013C5.69158 28.2659 7.13533 27.647 4.96957 26.952C4.84417 26.9117 4.36571 25.7641 4.1308 25.1035C3.40237 23.0543 3.56706 18.9669 3.89087 16.1895C4.24811 13.1278 7.91307 8.28478 9.08847 8.6209C9.82414 8.83135 10.1332 8.08739 10.943 7.59642C12.4129 6.70482 13.8617 5.43375 15.3957 5.30197C16.0483 5.24581 15.576 4.58191 17.659 4.56217C18.7034 4.55244 18.8996 4.6086 21.3265 5.47489C22.7903 5.99756 21.2613 6.67619 23.0695 6.89943C23.8124 6.99118 21.4814 8.15133 24.0551 8.47967C24.5536 8.54333 23.4075 9.1266 24.6423 9.26061C25.8533 9.39183 24.1917 11.9776 24.4503 12.2126C25.1522 12.8503 26.2802 8.93616 27.0608 8.27171C28.2858 7.22944 28.4758 7.79436 28.0277 8.86638C27.5707 9.96009 26.463 11.5737 26.463 11.7394C26.463 12.6268 28.0369 11.1086 28.3549 9.91144C28.3574 9.90171 29.8658 7.89333 30.0118 9.67568C30.126 11.071 31.436 10.5728 31.2251 12.2601C31.1655 12.7374 32.712 11.3974 33.6419 13.1725C34.0229 13.8995 37.2648 17.608 36.8546 13.9551C36.8153 13.6051 38.4196 12.5476 38.3011 15.5493C38.2621 16.5365 39.3141 17.7954 39.3141 14.2181C39.3141 11.5587 37.7552 15.0286 37.9041 11.2651C37.9322 10.5498 37.6017 8.7713 36.8351 8.17663C35.0422 6.78601 34.5662 4.48071 32.3938 3.25968C31.5687 2.79595 33.6801 1.32387 33.2331 1.1793C32.9263 1.07977 32.2185 2.1454 31.7306 2.44871C31.2426 2.7523 29.1195 -0.176295 27.6735 0.0308257C26.1777 0.245174 26.1607 0.378899 24.3026 0.133969C23.4337 -0.290558 19.5689 0.2891 20.7641 1.99416C20.9366 2.2402 23.1768 3.16098 20.6515 3.27858C19.7807 3.31917 19.8161 2.79873 17.7384 3.32696C17.3773 3.4187 15.0686 3.20908 16.9389 2.5627C16.9451 2.56047 18.194 1.87934 17.7543 1.4562L17.7535 1.45592Z" fill="#FF0108"/>
<path fill-rule="evenodd" clip-rule="evenodd" d="M39.9061 19.9365C39.7355 19.9915 39.5463 20.0902 39.29 19.659C39.035 19.2303 40.3887 18.9011 40.1229 19.6659C40.1223 19.6679 40.1039 19.8725 39.9061 19.9365Z" fill="#FF0108"/>
<path fill-rule="evenodd" clip-rule="evenodd" d="M40.0153 18.6256C39.8013 18.6381 39.5343 18.4458 39.5324 18.4455C39.3969 17.788 39.4423 17.4221 39.6463 17.4082C39.6667 17.4165 40.2284 18.6134 40.0156 18.6256H40.0153Z" fill="#FF0108"/>
</g>
<path d="M55.6819 12.4649V27.3802H52.1055V12.4649H55.6819ZM60.3563 18.6728V21.4387H54.7093V18.6728H60.3563ZM60.785 12.4649V15.241H54.7093V12.4649H60.785Z" fill="white"/>
<path d="M67.6032 22.3197H64.5601V19.5435H67.6032C67.9587 19.5435 68.2446 19.4582 68.4607 19.2874C68.6838 19.1167 68.8441 18.8811 68.9417 18.5806C69.0463 18.2733 69.0986 17.9284 69.0986 17.5459C69.0986 17.1362 69.0463 16.7571 68.9417 16.4088C68.8441 16.0605 68.6838 15.7805 68.4607 15.5688C68.2446 15.3503 67.9587 15.241 67.6032 15.241H65.8673V27.3802H62.2909V12.4649H67.6032C68.6559 12.4649 69.5622 12.6834 70.3221 13.1205C71.089 13.5576 71.6781 14.1586 72.0894 14.9235C72.5077 15.6815 72.7168 16.5488 72.7168 17.5254C72.7168 18.4884 72.5077 19.3284 72.0894 20.0455C71.6781 20.7626 71.089 21.3226 70.3221 21.7255C69.5622 22.1216 68.6559 22.3197 67.6032 22.3197Z" fill="white"/>
<path d="M90.5047 12.4649V27.3802H86.9387L83.1218 18.0991V27.3802H79.5454V12.4649H83.1218L86.9387 21.746V12.4649H90.5047Z" fill="white"/>
<path d="M101.569 24.6143V27.3802H94.9072V24.6143H101.569ZM96.1516 12.4649V27.3802H92.5752V12.4649H96.1516ZM100.701 18.3859V21.0596H94.9072V18.3859H100.701ZM101.6 12.4649V15.241H94.9072V12.4649H101.6Z" fill="white"/>
<path d="M109.882 12.4649V27.3802H106.295V12.4649H109.882ZM113.573 12.4649V15.241H102.708V12.4649H113.573Z" fill="white"/>
<path d="M118.217 26.028L120.664 12.4649H122.379L123.487 13.6225L120.862 27.3802H118.949L118.217 26.028ZM118.133 12.4649L120.193 26.1304L119.377 27.3802H117.16L114.588 12.4649H118.133ZM124.219 26.0587L126.269 12.4649H129.793L127.22 27.3802H125.014L124.219 26.0587ZM123.686 12.4649L126.216 26.11L125.432 27.3802H123.518L120.82 13.602L121.981 12.4649H123.686Z" fill="white"/>
<path d="M142.289 18.806V21.0596C142.289 22.1319 142.153 23.0743 141.881 23.887C141.61 24.6997 141.223 25.3826 140.721 25.9358C140.219 26.4822 139.623 26.8953 138.932 27.1753C138.249 27.4485 137.489 27.5851 136.653 27.5851C135.809 27.5851 135.042 27.4485 134.352 27.1753C133.662 26.8953 133.066 26.4822 132.564 25.9358C132.062 25.3826 131.675 24.6997 131.403 23.887C131.131 23.0743 130.995 22.1319 130.995 21.0596V18.806C130.995 17.7337 131.131 16.7879 131.403 15.9684C131.675 15.1488 132.059 14.4659 132.554 13.9195C133.055 13.3732 133.652 12.96 134.342 12.68C135.032 12.4 135.799 12.26 136.642 12.26C137.479 12.26 138.242 12.4 138.932 12.68C139.63 12.96 140.226 13.3732 140.721 13.9195C141.216 14.4659 141.599 15.1488 141.871 15.9684C142.15 16.7879 142.289 17.7337 142.289 18.806ZM138.661 21.0596V18.7855C138.661 18.1162 138.619 17.5459 138.535 17.0747C138.451 16.6035 138.326 16.221 138.159 15.9274C137.991 15.6337 137.782 15.4186 137.531 15.282C137.28 15.1454 136.984 15.0771 136.642 15.0771C136.287 15.0771 135.983 15.1454 135.733 15.282C135.482 15.4186 135.272 15.6337 135.105 15.9274C134.945 16.221 134.826 16.6035 134.75 17.0747C134.673 17.5459 134.635 18.1162 134.635 18.7855V21.0596C134.635 21.7221 134.673 22.2889 134.75 22.7602C134.826 23.2246 134.945 23.607 135.105 23.9075C135.272 24.208 135.485 24.4299 135.743 24.5733C136.001 24.7099 136.304 24.7782 136.653 24.7782C136.987 24.7782 137.28 24.7099 137.531 24.5733C137.789 24.4299 137.998 24.208 138.159 23.9075C138.326 23.607 138.451 23.2246 138.535 22.7602C138.619 22.2889 138.661 21.7221 138.661 21.0596Z" fill="white"/>
<path d="M144.161 12.4649H149.369C150.387 12.4649 151.269 12.6356 152.015 12.9771C152.76 13.3186 153.332 13.8239 153.73 14.4932C154.134 15.1625 154.336 15.9888 154.336 16.9723C154.336 17.8259 154.225 18.5396 154.001 19.1133C153.785 19.6869 153.479 20.1616 153.081 20.5372C152.684 20.906 152.217 21.2099 151.68 21.4489L150.519 22.1148H146.43L146.409 19.3386H149.285C149.613 19.3386 149.885 19.2567 150.101 19.0928C150.317 18.9289 150.477 18.6967 150.582 18.3962C150.693 18.0889 150.749 17.7235 150.749 17.3001C150.749 16.8698 150.697 16.501 150.592 16.1937C150.488 15.8864 150.334 15.6508 150.132 15.4869C149.937 15.323 149.683 15.241 149.369 15.241H147.738V27.3802H144.161V12.4649ZM150.906 27.3802L148.208 20.7831L151.994 20.7626L154.744 27.2266V27.3802H150.906Z" fill="white"/>
<path d="M159.878 12.4649V27.3802H156.302V12.4649H159.878ZM167.429 12.4649L162.618 20.025L159.659 23.7231L158.979 20.4245L160.757 17.1464L163.026 12.4649H167.429ZM163.12 27.3802L160.339 20.6601L163.131 18.6011L167.345 27.3802H163.12Z" fill="white"/>
<path d="M184.244 18.806V21.0596C184.244 22.1319 184.108 23.0743 183.836 23.887C183.564 24.6997 183.177 25.3826 182.675 25.9358C182.173 26.4822 181.577 26.8953 180.887 27.1753C180.204 27.4485 179.444 27.5851 178.607 27.5851C177.764 27.5851 176.997 27.4485 176.307 27.1753C175.617 26.8953 175.021 26.4822 174.519 25.9358C174.017 25.3826 173.63 24.6997 173.358 23.887C173.086 23.0743 172.95 22.1319 172.95 21.0596V18.806C172.95 17.7337 173.086 16.7879 173.358 15.9684C173.63 15.1488 174.013 14.4659 174.508 13.9195C175.01 13.3732 175.606 12.96 176.296 12.68C176.987 12.4 177.753 12.26 178.597 12.26C179.434 12.26 180.197 12.4 180.887 12.68C181.584 12.96 182.18 13.3732 182.675 13.9195C183.17 14.4659 183.554 15.1488 183.826 15.9684C184.105 16.7879 184.244 17.7337 184.244 18.806ZM180.615 21.0596V18.7855C180.615 18.1162 180.573 17.5459 180.49 17.0747C180.406 16.6035 180.281 16.221 180.113 15.9274C179.946 15.6337 179.737 15.4186 179.486 15.282C179.235 15.1454 178.939 15.0771 178.597 15.0771C178.241 15.0771 177.938 15.1454 177.687 15.282C177.436 15.4186 177.227 15.6337 177.06 15.9274C176.899 16.221 176.781 16.6035 176.704 17.0747C176.628 17.5459 176.589 18.1162 176.589 18.7855V21.0596C176.589 21.7221 176.628 22.2889 176.704 22.7602C176.781 23.2246 176.899 23.607 177.06 23.9075C177.227 24.208 177.44 24.4299 177.698 24.5733C177.956 24.7099 178.259 24.7782 178.607 24.7782C178.942 24.7782 179.235 24.7099 179.486 24.5733C179.744 24.4299 179.953 24.208 180.113 23.9075C180.281 23.607 180.406 23.2246 180.49 22.7602C180.573 22.2889 180.615 21.7221 180.615 21.0596Z" fill="white"/>
<path d="M191.418 22.3197H188.375V19.5435H191.418C191.773 19.5435 192.059 19.4582 192.275 19.2874C192.498 19.1167 192.659 18.8811 192.756 18.5806C192.861 18.2733 192.913 17.9284 192.913 17.5459C192.913 17.1362 192.861 16.7571 192.756 16.4088C192.659 16.0605 192.498 15.7805 192.275 15.5688C192.059 15.3503 191.773 15.241 191.418 15.241H189.682V27.3802H186.105V12.4649H191.418C192.47 12.4649 193.377 12.6834 194.137 13.1205C194.903 13.5576 195.493 14.1586 195.904 14.9235C196.322 15.6815 196.531 16.5488 196.531 17.5254C196.531 18.4884 196.322 19.3284 195.904 20.0455C195.493 20.7626 194.903 21.3226 194.137 21.7255C193.377 22.1216 192.47 22.3197 191.418 22.3197Z" fill="white"/>
<path d="M204.813 23.4158C204.813 23.1836 204.789 22.9753 204.74 22.7909C204.698 22.5997 204.611 22.4221 204.479 22.2582C204.353 22.0943 204.162 21.9304 203.904 21.7665C203.646 21.5957 203.301 21.4182 202.868 21.2338C202.325 21.0153 201.791 20.7694 201.268 20.4962C200.746 20.2162 200.275 19.8918 199.857 19.523C199.445 19.1474 199.114 18.7103 198.863 18.2118C198.612 17.7064 198.487 17.1191 198.487 16.4498C198.487 15.8079 198.612 15.2308 198.863 14.7186C199.121 14.1995 199.473 13.7591 199.919 13.3971C200.373 13.0283 200.906 12.7483 201.519 12.5571C202.133 12.359 202.802 12.26 203.527 12.26C204.489 12.26 205.336 12.4512 206.068 12.8337C206.807 13.2093 207.382 13.7454 207.794 14.442C208.212 15.1318 208.421 15.9479 208.421 16.8903H204.855C204.855 16.5147 204.807 16.1835 204.709 15.8966C204.611 15.6098 204.458 15.3844 204.249 15.2205C204.047 15.0566 203.778 14.9747 203.444 14.9747C203.144 14.9747 202.889 15.043 202.68 15.1796C202.478 15.3161 202.325 15.5005 202.22 15.7327C202.115 15.9581 202.063 16.2074 202.063 16.4806C202.063 16.7059 202.115 16.9108 202.22 17.0952C202.325 17.2728 202.468 17.4401 202.649 17.5972C202.837 17.7542 203.053 17.9045 203.297 18.0479C203.548 18.1913 203.817 18.3313 204.102 18.4679C204.793 18.7206 205.403 19.004 205.932 19.3182C206.469 19.6255 206.919 19.9772 207.281 20.3733C207.644 20.7626 207.916 21.2065 208.097 21.705C208.285 22.2036 208.379 22.767 208.379 23.3953C208.379 24.0646 208.268 24.6587 208.045 25.1777C207.829 25.6968 207.511 26.1373 207.093 26.4992C206.675 26.8544 206.169 27.1241 205.577 27.3085C204.991 27.4929 204.329 27.5851 203.59 27.5851C202.914 27.5851 202.248 27.4895 201.593 27.2983C200.944 27.1002 200.355 26.7997 199.825 26.3968C199.302 25.987 198.884 25.4646 198.57 24.8294C198.257 24.1875 198.1 23.426 198.1 22.545H201.697C201.697 22.9821 201.732 23.3509 201.802 23.6514C201.871 23.9519 201.98 24.1943 202.126 24.3787C202.279 24.5563 202.475 24.686 202.712 24.768C202.949 24.8431 203.241 24.8807 203.59 24.8807C203.911 24.8807 204.158 24.8158 204.332 24.686C204.514 24.5494 204.639 24.3719 204.709 24.1533C204.779 23.928 204.813 23.6821 204.813 23.4158Z" fill="white"/>
<defs>
<clipPath id="clip0_172_1662">
<rect width="40.421" height="40" fill="white"/>
</clipPath>
</defs>
</svg>
